TITLE ""
FILE "Step1_Track12.mp3" MP3
  TRACK 01 AUDIO
    TITLE "Step1_Track12_01"
    INDEX 01 00:00:00
  TRACK 02 AUDIO
    TITLE "Step1_Track12_02"
    INDEX 01 00:00:22
  TRACK 03 AUDIO
    TITLE "Step1_Track12_03"
    INDEX 01 00:01:49
  TRACK 04 AUDIO
    TITLE "Step1_Track12_04"
    INDEX 01 00:02:31
  TRACK 05 AUDIO
    TITLE "Step1_Track12_05"
    INDEX 01 00:03:28
  TRACK 06 AUDIO
    TITLE "Step1_Track12_06"
    INDEX 01 00:03:44
  TRACK 07 AUDIO
    TITLE "Step1_Track12_07"
    INDEX 01 00:05:53
  TRACK 08 AUDIO
    TITLE "Step1_Track12_08"
    INDEX 01 00:05:64
  TRACK 09 AUDIO
    TITLE "Step1_Track12_09"
    INDEX 01 00:06:56
  TRACK 10 AUDIO
    TITLE "Step1_Track12_10"
    INDEX 01 00:06:64
  TRACK 11 AUDIO
    TITLE "Step1_Track12_11"
    INDEX 01 00:08:18
  TRACK 12 AUDIO
    TITLE "Step1_Track12_12"
    INDEX 01 00:08:39
  TRACK 13 AUDIO
    TITLE "Step1_Track12_13"
    INDEX 01 00:09:37
  TRACK 14 AUDIO
    TITLE "Step1_Track12_14"
    INDEX 01 00:09:46
  TRACK 15 AUDIO
    TITLE "Step1_Track12_15"
    INDEX 01 00:11:26
  TRACK 16 AUDIO
    TITLE "Step1_Track12_16"
    INDEX 01 00:11:36
  TRACK 17 AUDIO
    TITLE "Step1_Track12_17"
    INDEX 01 00:12:29
  TRACK 18 AUDIO
    TITLE "Step1_Track12_18"
    INDEX 01 00:12:47
  TRACK 19 AUDIO
    TITLE "Step1_Track12_19"
    INDEX 01 00:14:46
  TRACK 20 AUDIO
    TITLE "Step1_Track12_20"
    INDEX 01 00:14:48
  TRACK 21 AUDIO
    TITLE "Step1_Track12_21"
    INDEX 01 00:15:49
  TRACK 22 AUDIO
    TITLE "Step1_Track12_22"
    INDEX 01 00:16:00
  TRACK 23 AUDIO
    TITLE "Step1_Track12_23"
    INDEX 01 00:18:04
  TRACK 24 AUDIO
    TITLE "Step1_Track12_24"
    INDEX 01 00:18:06
  TRACK 25 AUDIO
    TITLE "Step1_Track12_25"
    INDEX 01 00:19:10
  TRACK 26 AUDIO
    TITLE "Step1_Track12_26"
    INDEX 01 00:19:19
  TRACK 27 AUDIO
    TITLE "Step1_Track12_27"
    INDEX 01 00:20:54
  TRACK 28 AUDIO
    TITLE "Step1_Track12_28"
    INDEX 01 00:20:60
  TRACK 29 AUDIO
    TITLE "Step1_Track12_29"
    INDEX 01 00:21:67
  TRACK 30 AUDIO
    TITLE "Step1_Track12_30"
    INDEX 01 00:22:14
  TRACK 31 AUDIO
    TITLE "Step1_Track12_31"
    INDEX 01 00:23:74
  TRACK 32 AUDIO
    TITLE "Step1_Track12_32"
    INDEX 01 00:24:25
  TRACK 33 AUDIO
    TITLE "Step1_Track12_33"
    INDEX 01 00:25:16
  TRACK 34 AUDIO
    TITLE "Step1_Track12_34"
    INDEX 01 00:25:26
  TRACK 35 AUDIO
    TITLE "Step1_Track12_35"
    INDEX 01 00:27:03
  TRACK 36 AUDIO
    TITLE "Step1_Track12_36"
    INDEX 01 00:27:17
  TRACK 37 AUDIO
    TITLE "Step1_Track12_37"
    INDEX 01 00:28:20
  TRACK 38 AUDIO
    TITLE "Step1_Track12_38"
    INDEX 01 00:28:22
  TRACK 39 AUDIO
    TITLE "Step1_Track12_39"
    INDEX 01 00:29:73
  TRACK 40 AUDIO
    TITLE "Step1_Track12_40"
    INDEX 01 00:30:06
  TRACK 41 AUDIO
    TITLE "Step1_Track12_41"
    INDEX 01 00:31:01
  TRACK 42 AUDIO
    TITLE "Step1_Track12_42"
    INDEX 01 00:31:03
  TRACK 43 AUDIO
    TITLE "Step1_Track12_43"
    INDEX 01 00:32:26
